<?xml version="1.0" encoding="utf-8"?>
<!-- Generator: Adobe Illustrator 24.1.2, SVG Export Plug-In . SVG Version: 6.00 Build 0)  -->
<svg version="1.1" id="Warstwa_3" xmlns="http://www.w3.org/2000/svg" xmlns:xlink="http://www.w3.org/1999/xlink" x="0px" y="0px"
	 viewBox="0 0 430 430" style="enable-background:new 0 0 430 430;" xml:space="preserve">
<style type="text/css">
	.st0{fill:#001556;}
	.st1{fill:#ffcb05;}
	.st2{fill:#ffcb05;}
	.st3{fill:none;stroke:#ffcb05;stroke-width:12;stroke-linecap:round;stroke-linejoin:round;stroke-miterlimit:10;}
</style>
<g>
	<path class="st0" d="M248.43,219h-66.86c-13.27,0-24.07-10.8-24.07-24.07c0-13.27,10.8-24.07,24.07-24.07h66.86
		c13.27,0,24.07,10.8,24.07,24.07C272.5,208.2,261.7,219,248.43,219z M181.57,182.86c-6.66,0-12.07,5.42-12.07,12.07
		S174.92,207,181.57,207h66.86c6.66,0,12.07-5.41,12.07-12.07s-5.41-12.07-12.07-12.07H181.57z"/>
	<path class="st0" d="M348.43,77.66H81.57c-3.31,0-6,2.69-6,6v56c0,3.31,2.69,6,6,6h4.58v200.68c0,3.31,2.69,6,6,6h245.7
		c3.31,0,6-2.69,6-6V145.66h4.58c3.31,0,6-2.69,6-6v-56C354.43,80.35,351.75,77.66,348.43,77.66z M87.57,89.66h254.87v44h-4.58
		H92.15h-4.58V89.66z M331.85,340.34H98.15V145.66h233.7V340.34z"/>
	<path class="st1" d="M289.81,270.03H140.19c-3.31,0-6-2.69-6-6s2.69-6,6-6h149.62c3.31,0,6,2.69,6,6S293.13,270.03,289.81,270.03z"
		/>
	<path class="st1" d="M289.81,301.06H140.19c-3.31,0-6-2.69-6-6s2.69-6,6-6h149.62c3.31,0,6,2.69,6,6S293.13,301.06,289.81,301.06z"
		/>
</g>
</svg>
