<?xml version="1.0" encoding="utf-8"?>
<!-- Generator: Adobe Illustrator 24.1.2, SVG Export Plug-In . SVG Version: 6.00 Build 0)  -->
<svg version="1.1" id="Warstwa_3" xmlns="http://www.w3.org/2000/svg" xmlns:xlink="http://www.w3.org/1999/xlink" x="0px" y="0px"
	 viewBox="0 0 430 430" style="enable-background:new 0 0 430 430;" xml:space="preserve">
<style type="text/css">
	.st0{fill:#ffcb05;}
	.st1{fill:#001556;}
	.st2{fill:none;}
	.st3{fill-opacity:0;}
</style>
<g>
	<path class="st0" d="M260.27,341.17c-0.25,0-0.51-0.01-0.76-0.04c-3.47-0.42-5.94-3.56-5.52-7.03l10.92-90.94
		c0.42-3.46,3.57-5.93,7.03-5.52c3.47,0.42,5.94,3.56,5.52,7.03l-10.92,90.94C266.15,338.81,263.42,341.17,260.27,341.17z
		 M217.04,341.17c-0.01,0-0.02,0-0.03,0c-3.49-0.02-6.31-2.86-6.29-6.35l0.4-78.81c0.02-3.48,2.84-6.29,6.32-6.29
		c0.01,0,0.02,0,0.03,0c3.49,0.02,6.31,2.86,6.29,6.35l-0.4,78.81C223.34,338.36,220.51,341.17,217.04,341.17z M301.22,341.13
		c-0.48,0-0.97-0.05-1.46-0.17c-3.4-0.8-5.5-4.21-4.7-7.6l25.87-109.55c0.8-3.4,4.2-5.51,7.6-4.7c3.4,0.8,5.5,4.21,4.7,7.6
		l-25.87,109.55C306.68,339.17,304.08,341.13,301.22,341.13z M132.64,340.71c-2.88,0-5.48-1.98-6.15-4.9l-24.86-107.83
		c-0.78-3.4,1.34-6.79,4.74-7.58c3.4-0.79,6.79,1.34,7.58,4.74l24.86,107.83c0.78,3.4-1.34,6.79-4.74,7.58
		C133.59,340.65,133.11,340.71,132.64,340.71z M173.49,340.17c-3.18,0-5.92-2.39-6.28-5.63l-9.81-89.02
		c-0.38-3.47,2.12-6.59,5.59-6.98c3.47-0.38,6.59,2.12,6.98,5.59l9.81,89.02c0.38,3.47-2.12,6.59-5.59,6.98
		C173.95,340.16,173.72,340.17,173.49,340.17z"/>
	<path class="st1" d="M312.46,379.26H119.12c-14.7,0-29.5-11.03-33.71-25.11L40.05,202.4c-9.21-1.42-16.27-9.4-16.27-19v-17.2
		c0-10.6,8.62-19.22,19.22-19.22h167.79L211,57.05c0.01-3.49,2.84-6.31,6.32-6.31c0,0,0.01,0,0.02,0c3.49,0.01,6.31,2.85,6.31,6.34
		l-0.22,89.9H387c10.6,0,19.22,8.62,19.22,19.22v17.2c0,9.7-7.22,17.74-16.56,19.04l-43.68,151.59
		C341.9,368.17,327.18,379.26,312.46,379.26z M53.32,202.62l44.21,147.9c2.61,8.72,12.5,16.09,21.6,16.09h193.33
		c9.08,0,18.87-7.37,21.38-16.09l42.62-147.9H223.11c-0.69,2.74-3.17,4.77-6.13,4.77c0,0-0.01,0-0.01,0
		c-2.95-0.01-5.43-2.04-6.12-4.77H53.32z M384.99,189.98H387c3.63,0,6.58-2.95,6.58-6.58v-17.2c0-3.63-2.95-6.58-6.58-6.58H223.4
		l-0.07,30.36h161.38C384.8,189.98,384.89,189.98,384.99,189.98z M43,159.62c-3.63,0-6.58,2.95-6.58,6.58v17.2
		c0,3.63,2.95,6.58,6.58,6.58h167.68l0.07-30.36H43z"/>
	<ellipse class="st1" cx="215.82" cy="208.05" rx="17.67" ry="16.45"/>
</g>
</svg>
