<?xml version="1.0" encoding="utf-8"?>
<!-- Generator: Adobe Illustrator 24.1.2, SVG Export Plug-In . SVG Version: 6.00 Build 0)  -->
<svg version="1.1" id="Warstwa_3" xmlns="http://www.w3.org/2000/svg" xmlns:xlink="http://www.w3.org/1999/xlink" x="0px" y="0px"
	 viewBox="0 0 430 430" style="enable-background:new 0 0 430 430;" xml:space="preserve">
<style type="text/css">
	.st0{fill:#ffcb05;}
	.st1{fill:#001556;}
	.st2{fill:none;}
	.st3{fill:#ffcb05;fill-opacity:0;}
</style>
<g>
	<path class="st1" d="M134.94,354.08H81.57c-3.48,0-6.3-2.82-6.3-6.3V321.4c0-3.48,2.82-6.3,6.3-6.3h53.37c3.48,0,6.3,2.82,6.3,6.3
		v26.37C141.24,351.26,138.42,354.08,134.94,354.08z M87.87,341.48h40.77V327.7H87.87V341.48z"/>
	<path class="st1" d="M348.43,354.08h-53.37c-3.48,0-6.3-2.82-6.3-6.3V321.4c0-3.48,2.82-6.3,6.3-6.3h53.37c3.48,0,6.3,2.82,6.3,6.3
		v26.37C354.73,351.26,351.91,354.08,348.43,354.08z M301.36,341.48h40.77V327.7h-40.77V341.48z"/>
	<path class="st0" d="M335.08,219.68c-2.87,0-5.47-1.98-6.14-4.9l-26.01-113.72c-1.69-7.38-8.16-12.54-15.73-12.54H142.79
		c-7.57,0-14.04,5.16-15.73,12.54l-26.01,113.72c-0.78,3.39-4.16,5.51-7.55,4.74c-3.39-0.78-5.51-4.15-4.74-7.55l26.01-113.72
		c3.01-13.15,14.53-22.33,28.01-22.33h144.41c13.49,0,25.01,9.18,28.01,22.33l26.01,113.72c0.78,3.39-1.34,6.77-4.74,7.55
		C336.02,219.63,335.55,219.68,335.08,219.68z"/>
	<path class="st0" d="M228.34,115.21h-26.69c-3.48,0-6.3-2.82-6.3-6.3s2.82-6.3,6.3-6.3h26.69c3.48,0,6.3,2.82,6.3,6.3
		S231.82,115.21,228.34,115.21z"/>
	<path class="st0" d="M300.68,219.68c-3.48,0-6.3-2.82-6.3-6.3c0-14.62-11.9-26.52-26.52-26.52c-14.62,0-26.52,11.9-26.52,26.52
		c0,3.48-2.82,6.3-6.3,6.3s-6.3-2.82-6.3-6.3c0-21.57,17.55-39.12,39.12-39.12s39.12,17.55,39.12,39.12
		C306.98,216.86,304.16,219.68,300.68,219.68z"/>
	<path class="st0" d="M144.94,273.33h-40.03c-10.83,0-19.64-8.81-19.64-19.64c0-10.83,8.81-19.64,19.64-19.64h40.03
		c3.48,0,6.3,2.82,6.3,6.3v26.69C151.24,270.51,148.42,273.33,144.94,273.33z M104.91,246.64c-3.88,0-7.04,3.16-7.04,7.04
		c0,3.88,3.16,7.04,7.04,7.04h33.73v-14.09H104.91z"/>
	<path class="st0" d="M325.09,271.33h-40.03c-3.48,0-6.3-2.82-6.3-6.3v-26.69c0-3.48,2.82-6.3,6.3-6.3h40.03
		c10.83,0,19.64,8.81,19.64,19.64C344.73,262.52,335.92,271.33,325.09,271.33z M291.36,258.73h33.73c3.88,0,7.04-3.16,7.04-7.04
		c0-3.88-3.16-7.04-7.04-7.04h-33.73V258.73z"/>
	<path class="st1" d="M256.64,304.02h-83.28c-3.48,0-6.3-2.82-6.3-6.3v-26.69c0-3.48,2.82-6.3,6.3-6.3h83.28
		c3.48,0,6.3,2.82,6.3,6.3v26.69C262.94,301.2,260.12,304.02,256.64,304.02z M179.66,291.42h70.68v-14.09h-70.68V291.42z"/>
	<path class="st1" d="M364.7,327.7H65.3c-4.44,0-8.68-1.91-11.62-5.24s-4.32-7.77-3.77-12.18l9.13-73.93
		c2.06-16.69,16.3-29.27,33.11-29.27h245.7c16.82,0,31.05,12.58,33.11,29.27l9.13,73.93c0.54,4.41-0.83,8.85-3.77,12.18
		S369.14,327.7,364.7,327.7z M92.15,219.68c-10.47,0-19.33,7.83-20.61,18.22l-9.13,73.93c-0.14,1.13,0.38,1.92,0.71,2.29
		s1.04,0.98,2.18,0.98H364.7c1.14,0,1.86-0.62,2.18-0.98s0.85-1.15,0.71-2.29l-9.13-73.93c-1.28-10.39-10.14-18.22-20.61-18.22
		H92.15z"/>
</g>
</svg>
