<?xml version="1.0" encoding="utf-8"?>
<!-- Generator: Adobe Illustrator 24.1.2, SVG Export Plug-In . SVG Version: 6.00 Build 0)  -->
<svg version="1.1" id="Warstwa_3" xmlns="http://www.w3.org/2000/svg" xmlns:xlink="http://www.w3.org/1999/xlink" x="0px" y="0px"
	 viewBox="0 0 430 430" style="enable-background:new 0 0 430 430;" xml:space="preserve">
<style type="text/css">
	.st0{fill:#08a88a;}
	.st1{fill:#001556;}
	.st2{fill:none;}
	.st3{fill-opacity:0;}
</style>
<g>
	<path class="st1" d="M237.07,379.46c-0.09,0-0.17,0-0.26-0.01c-2.6-0.11-4.86-1.81-5.69-4.27l-44.29-131.78L54.47,197.45
		c-2.45-0.85-4.13-3.13-4.22-5.72c-0.09-2.59,1.43-4.98,3.82-5.99l316.93-134.7c2.36-1,5.1-0.47,6.91,1.35
		c1.81,1.82,2.33,4.56,1.31,6.92L242.84,375.67C241.84,377.98,239.57,379.46,237.07,379.46z M73.97,190.92l119.88,41.63
		c1.84,0.64,3.27,2.09,3.89,3.93l40.05,119.15L361.49,68.73L73.97,190.92z"/>
	<path class="st1" d="M191.79,244.78c-1.61,0-3.21-0.61-4.44-1.84c-2.45-2.45-2.45-6.43,0-8.88L369.02,52.38
		c2.45-2.45,6.43-2.45,8.88,0c2.45,2.45,2.45,6.43,0,8.88L196.23,242.94C195,244.17,193.4,244.78,191.79,244.78z"/>
</g>
</svg>
