<?xml version="1.0" encoding="utf-8"?>
<!-- Generator: Adobe Illustrator 25.0.1, SVG Export Plug-In . SVG Version: 6.00 Build 0)  -->
<svg version="1.1" id="Layer_1" xmlns="http://www.w3.org/2000/svg" xmlns:xlink="http://www.w3.org/1999/xlink" x="0px" y="0px"
	 viewBox="0 0 430 430" style="enable-background:new 0 0 430 430;" xml:space="preserve">
<style type="text/css">
	.st0{fill:#001556;}
	.st1{fill:#ffcb05;}
</style>
<path class="st0" d="M317.6,285.6H136.1c-3.3,0-6-2.7-6-6s2.7-6,6-6h181.5c3.3,0,6,2.7,6,6S320.9,285.6,317.6,285.6z"/>
<path class="st0" d="M388.2,285.6h-25.9c-3.3,0-6-2.7-6-6s2.7-6,6-6h25.9c3.3,0,6,2.7,6,6S391.5,285.6,388.2,285.6z"/>
<path class="st0" d="M328.4,133.7h-15.1c-3.3,0-6-2.7-6-6s2.7-6,6-6h15.1c3.3,0,6,2.7,6,6S331.7,133.7,328.4,133.7z"/>
<path class="st1" d="M51.9,264H41.8c-3.3,0-6-2.7-6-6s2.7-6,6-6h10.1c3.3,0,6,2.7,6,6S55.2,264,51.9,264z"/>
<path class="st1" d="M234.8,235.2H65.6c-3.3,0-6-2.7-6-6s2.7-6,6-6h169.2c3.3,0,6,2.7,6,6S238.1,235.2,234.8,235.2z"/>
<path class="st1" d="M365.1,235.9c-3.2,0-5.9-2.5-6-5.8c-0.1-3.3,2.4-6.1,5.7-6.2l17.3-0.7c3.3-0.1,6.1,2.4,6.2,5.7
	c0.1,3.3-2.4,6.1-5.7,6.2l-17.3,0.7C365.3,235.9,365.2,235.9,365.1,235.9z"/>
<path class="st0" d="M91.5,285.6h-49c-3.3,0-6-2.7-6-6V127.7c0-3.3,2.7-6,6-6h270.7c2.9,0,5.4,2.1,5.9,5l12.2,74.9
	c0.1,0.3,0.1,0.6,0.1,1V263c0,3.3-2.7,6-6,6s-6-2.7-6-6v-60l-11.3-69.4H48.6v139.9h43c3.3,0,6,2.7,6,6S94.8,285.6,91.5,285.6z"/>
<path class="st0" d="M383.1,281.3c-3.3,0-6-2.7-6-6V227c0-6-1.6-10.6-4.8-13.7c-5.1-4.9-12.7-4.8-12.8-4.8c-0.1,0-0.1,0-0.2,0h-33.8
	c-3.3,0-6-2.7-6-6s2.7-6,6-6h33.8c1.5,0,13,0.1,21.4,8.2c5.6,5.4,8.4,12.9,8.4,22.3v48.2C389.1,278.6,386.4,281.3,383.1,281.3z"/>
<path class="st1" d="M113.8,308.3c-15.6,0-28.3-12.7-28.3-28.3c0-15.6,12.7-28.3,28.3-28.3s28.3,12.7,28.3,28.3
	C142.2,295.6,129.5,308.3,113.8,308.3z M113.8,263.7c-9,0-16.3,7.3-16.3,16.3c0,9,7.3,16.3,16.3,16.3s16.3-7.3,16.3-16.3
	C130.2,271,122.8,263.7,113.8,263.7z"/>
<path class="st1" d="M339.9,308.3c-15.6,0-28.3-12.7-28.3-28.3c0-15.6,12.7-28.3,28.3-28.3s28.3,12.7,28.3,28.3
	C368.2,295.6,355.5,308.3,339.9,308.3z M339.9,263.7c-9,0-16.3,7.3-16.3,16.3c0,9,7.3,16.3,16.3,16.3s16.3-7.3,16.3-16.3
	C356.2,271,348.9,263.7,339.9,263.7z"/>
<path class="st0" d="M262.2,284.1c-3.3,0-6-2.7-6-6V128.4c0-3.3,2.7-6,6-6s6,2.7,6,6v149.8C268.2,281.5,265.5,284.1,262.2,284.1z"/>
<path class="st0" d="M291.7,284.1c-3.3,0-6-2.7-6-6V129.8c0-3.3,2.7-6,6-6s6,2.7,6,6v148.3C297.7,281.5,295,284.1,291.7,284.1z"/>
<path class="st0" d="M257.1,208.9H46.9c-3.3,0-6-2.7-6-6s2.7-6,6-6h210.2c3.3,0,6,2.7,6,6S260.4,208.9,257.1,208.9z"/>
<path class="st0" d="M80,207.1c-3.3,0-6-2.7-6-6v-72.2c0-3.3,2.7-6,6-6s6,2.7,6,6v72.2C86,204.4,83.3,207.1,80,207.1z"/>
<path class="st0" d="M116.7,207.1c-3.3,0-6-2.7-6-6v-72.2c0-3.3,2.7-6,6-6s6,2.7,6,6v72.2C122.7,204.4,120,207.1,116.7,207.1z"/>
<path class="st0" d="M152,207.1c-3.3,0-6-2.7-6-6v-72.2c0-3.3,2.7-6,6-6s6,2.7,6,6v72.2C158,204.4,155.3,207.1,152,207.1z"/>
<path class="st0" d="M188,207.1c-3.3,0-6-2.7-6-6v-72.2c0-3.3,2.7-6,6-6s6,2.7,6,6v72.2C194,204.4,191.3,207.1,188,207.1z"/>
<path class="st0" d="M224,207.1c-3.3,0-6-2.7-6-6v-72.2c0-3.3,2.7-6,6-6s6,2.7,6,6v72.2C230,204.4,227.3,207.1,224,207.1z"/>
</svg>
