<?xml version="1.0" encoding="utf-8"?>
<!-- Generator: Adobe Illustrator 24.1.2, SVG Export Plug-In . SVG Version: 6.00 Build 0)  -->
<svg version="1.1" id="Warstwa_3" xmlns="http://www.w3.org/2000/svg" xmlns:xlink="http://www.w3.org/1999/xlink" x="0px" y="0px"
	 viewBox="0 0 430 430" style="enable-background:new 0 0 430 430;" xml:space="preserve">
<style type="text/css">
	.st0{fill:#ffcb05;}
	.st1{fill:#001556;}
	.st2{fill:#ffcb05;}
	.st3{fill:none;}
</style>
<g>
	<path class="st2" d="M321,284.01h-0.2c-3.31,0-6-2.69-6-6s2.69-6,6-6h0.2c3.31,0,6,2.69,6,6S324.31,284.01,321,284.01z"/>
	<path class="st2" d="M403.86,244.24h-29.93c-11.64,0-21.11-9.46-21.11-21.1v-3.79c0-11.64,9.47-21.11,21.11-21.11h5.42
		c3.31,0,6,2.69,6,6s-2.69,6-6,6h-5.42c-5.02,0-9.11,4.09-9.11,9.11v3.79c0,5.02,4.09,9.1,9.11,9.1h29.93c3.31,0,6,2.69,6,6
		S407.17,244.24,403.86,244.24z"/>
	<path class="st2" d="M31.51,245.93c-1.66,0-3.32-0.69-4.51-2.04c-2.19-2.49-1.95-6.28,0.54-8.47l22.07-19.43
		c0.29-0.26,0.41-0.58,0.33-0.97c-0.07-0.38-0.3-0.65-0.67-0.78l-19.78-7.01c-3.12-1.11-4.76-4.54-3.65-7.66
		c1.11-3.12,4.54-4.76,7.66-3.65l19.78,7c4.4,1.56,7.56,5.23,8.44,9.81c0.89,4.59-0.68,9.17-4.18,12.25l-22.08,19.43
		C34.33,245.43,32.92,245.93,31.51,245.93z"/>
	<path class="st1" d="M411.11,254.68l-1.2-16.59c-0.02-0.28-0.06-0.56-0.12-0.83c-3.38-15.64-13.15-29.44-26.81-37.84
		c-6.72-4.14-14.1-6.85-21.89-8.05l-69.96-11.27c-18.81-28.99-55.99-67.96-83.48-67.96h-43.87c-0.01,0-0.02,0-0.02,0h-51.32
		c-0.01,0-0.01,0-0.02,0h-19.5c-0.08,0-0.16,0-0.24,0c-16.31,0.66-32.61,15.93-48.44,45.4c-10.2,18.98-16.81,37.53-18.16,41.43
		c-11.53,18.24-6.92,33.93-1.41,41.99c-2.45,6.86-6.76,22.64-1.89,38.8c0.76,2.54,3.1,4.27,5.75,4.27h25
		c2.9,19.14,19.47,33.86,39.41,33.86s36.5-14.72,39.41-33.86h149.17c2.9,19.14,19.47,33.86,39.41,33.86s36.5-14.72,39.41-33.86
		h21.93c15.94,0,28.9-12.96,28.9-28.9C411.13,254.97,411.13,254.83,411.11,254.68z M276.26,179.59h-98.96l-6.67-55.46h37.02
		C225.85,124.13,256.38,151.76,276.26,179.59z M158.55,124.13l6.67,55.46H93.98l22.56-55.46H158.55z M93.04,124.13h10.54
		l-22.56,55.46H46.77c2.35-5.22,5.07-10.87,8.1-16.5C68.1,138.5,81.65,124.67,93.04,124.13z M36.96,242.44
		c1.04-2.25,0.63-4.87-1.1-6.65c-1.17-1.26-11.12-12.82,0.68-30.93c0.28-0.42,0.5-0.88,0.66-1.36c0.03-0.1,1.63-4.82,4.47-11.91
		h43.34c0.01,0,0.03,0,0.04,0c0.01,0,0.02,0,0.03,0h80.9v80.43h-33.67c-2.9-19.14-19.47-33.86-39.41-33.86s-36.51,14.72-39.41,33.86
		H33.23C30.5,256.87,36.89,242.59,36.96,242.44z M92.91,305.87c-15.34,0-27.83-12.47-27.86-27.8c0-0.02,0-0.03,0-0.05
		c0-0.02,0-0.03,0-0.05c0.03-15.34,12.51-27.81,27.86-27.81c15.35,0,27.84,12.48,27.86,27.82c0,0.01,0,0.03,0,0.04
		c0,0.01,0,0.02,0,0.04C120.75,293.4,108.26,305.87,92.91,305.87z M320.89,305.87c-15.34,0-27.83-12.47-27.86-27.8
		c0-0.02,0-0.03,0-0.05c0-0.02,0-0.03,0-0.05c0.03-15.34,12.51-27.81,27.86-27.81c15.35,0,27.84,12.48,27.86,27.82
		c0,0.01,0,0.03,0,0.04c0,0.01,0,0.02,0,0.04C348.73,293.4,336.24,305.87,320.89,305.87z M382.23,272.02H360.3
		c-2.9-19.14-19.47-33.86-39.41-33.86s-36.51,14.72-39.41,33.86h-103.5v-80.43h109.05l72.18,11.63c6.24,0.97,12.12,3.13,17.47,6.42
		c10.77,6.63,18.51,17.46,21.28,29.76l1.15,15.92C399.02,264.54,391.48,272.02,382.23,272.02z"/>
	<path class="st2" d="M219.98,220.88h-21.35c-3.31,0-6-2.69-6-6s2.69-6,6-6h21.35c3.31,0,6,2.69,6,6S223.3,220.88,219.98,220.88z"/>
	<path class="st2" d="M93.02,284.01h-0.2c-3.31,0-6-2.69-6-6s2.69-6,6-6h0.2c3.31,0,6,2.69,6,6S96.33,284.01,93.02,284.01z"/>
</g>
</svg>
