<svg width="21" height="20" viewBox="0 0 21 20" fill="none" xmlns="http://www.w3.org/2000/svg">
  <path d="M8.65275 3.55534C8.70368 3.65901 8.73732 3.77003 8.75239 3.88415L9.03082 8.02407L9.16903 10.1049C9.17046 10.3189 9.20403 10.5315 9.26867 10.7359C9.4356 11.1324 9.83716 11.3844 10.2741 11.3668L16.9313 10.9314C17.2196 10.9266 17.498 11.0344 17.7052 11.2311C17.8779 11.395 17.9894 11.6094 18.0246 11.84L18.0364 11.98C17.7609 15.7947 14.9592 18.9765 11.1524 19.7978C7.34555 20.6191 3.44186 18.8841 1.56071 15.5347C1.01839 14.5616 0.67965 13.4921 0.564382 12.3888C0.516229 12.0622 0.495025 11.7323 0.500979 11.4024C0.495034 7.31255 3.40747 3.77677 7.48433 2.92438C7.97501 2.84798 8.45603 3.10774 8.65275 3.55534Z" fill="#001556" />
  <path opacity="0.4" d="M11.37 0.000819186C15.9298 0.116827 19.7623 3.39579 20.4999 7.81229L20.4929 7.84488L20.4728 7.89227L20.4756 8.02236C20.4651 8.19471 20.3986 8.36054 20.2839 8.49448C20.1645 8.63401 20.0013 8.72903 19.8215 8.76591L19.7119 8.78095L12.0312 9.27861C11.7757 9.3038 11.5213 9.22142 11.3313 9.05195C11.173 8.91073 11.0717 8.72009 11.0431 8.51468L10.5276 0.845062C10.5186 0.819129 10.5186 0.791015 10.5276 0.765082C10.5346 0.553672 10.6277 0.35384 10.786 0.21023C10.9443 0.0666198 11.1546 -0.00880037 11.37 0.000819186Z" fill="#001556" />
</svg>
  