<svg width="26" height="28" viewBox="0 0 26 28" fill="none" xmlns="http://www.w3.org/2000/svg">
  <path d="M20.9072 9.66064H16.7232V12.1432H20.9072C22.1514 12.1432 23.1168 12.7788 23.1168 13.3258V24.3345C23.1168 24.8815 22.1514 25.517 20.9072 25.517H5.09226C3.84806 25.517 2.88275 24.8815 2.88275 24.3345V13.3262C2.88275 12.7792 3.84806 12.1437 5.09226 12.1437H9.27544V9.66106H5.09226C2.46112 9.66106 0.400146 11.271 0.400146 13.3262V24.3349C0.400146 26.3905 2.46112 28 5.09226 28H20.9077C23.5384 28 25.5998 26.3901 25.5998 24.3349V13.3262C25.5994 11.2706 23.5384 9.66064 20.9072 9.66064Z" fill="#001556" />
  <path d="M9.32643 6.18788C9.6442 6.18788 9.96156 6.06665 10.204 5.82418L11.7581 4.27007V9.66062V12.1432V16.8991C11.7581 17.5847 12.3138 18.1404 12.9994 18.1404C13.685 18.1404 14.2407 17.5847 14.2407 16.8991V12.1432V9.66062V4.18608L15.8788 5.82418C16.1213 6.06665 16.4391 6.18788 16.7564 6.18788C17.0738 6.18788 17.3916 6.06665 17.634 5.82418C18.119 5.33966 18.119 4.5535 17.634 4.06898L13.9279 0.362873C13.6855 0.120406 13.3681 0 13.0507 0C13.0474 0 13.0445 0 13.0412 0C13.0379 0 13.035 0 13.0317 0C12.7144 0 12.397 0.120406 12.1545 0.362873L8.44842 4.06898C7.96348 4.5535 7.96348 5.33966 8.44842 5.82418C8.6913 6.06665 9.00866 6.18788 9.32643 6.18788Z" fill="#001556" />
</svg>
  