<svg width="24" height="19" viewBox="0 0 24 19" fill="none" xmlns="http://www.w3.org/2000/svg">
  <path d="M22.875 1.75H10.625C10.625 0.784875 9.84013 0 8.875 0H7.125C6.15987 0 5.375 0.784875 5.375 1.75H1.875C1.392 1.75 1 2.14112 1 2.625C1 3.10888 1.392 3.5 1.875 3.5H5.375C5.375 4.46513 6.15987 5.25 7.125 5.25H8.875C9.84013 5.25 10.625 4.46513 10.625 3.5H22.875C23.358 3.5 23.75 3.10888 23.75 2.625C23.75 2.14112 23.358 1.75 22.875 1.75ZM7.125 3.5V1.75H8.875L8.87588 2.6215C8.87588 2.62325 8.875 2.62413 8.875 2.625C8.875 2.62587 8.87588 2.62675 8.87588 2.6285V3.5H7.125Z" fill="#001556" />
  <path d="M22.5 8.125H17.25C17.25 7.15987 16.4651 6.375 15.5 6.375H13.75C12.7849 6.375 12 7.15987 12 8.125H1.5C1.017 8.125 0.625 8.51612 0.625 9C0.625 9.48388 1.017 9.875 1.5 9.875H12C12 10.8401 12.7849 11.625 13.75 11.625H15.5C16.4651 11.625 17.25 10.8401 17.25 9.875H22.5C22.983 9.875 23.375 9.48388 23.375 9C23.375 8.51612 22.983 8.125 22.5 8.125ZM13.75 9.875V8.125H15.5L15.5009 8.9965C15.5009 8.99825 15.5 8.99913 15.5 9C15.5 9.00087 15.5009 9.00175 15.5009 9.0035V9.875H13.75Z" fill="#001556" />
  <path d="M22.5 15.125H10.25C10.25 14.1599 9.46513 13.375 8.5 13.375H6.75C5.78487 13.375 5 14.1599 5 15.125H1.5C1.017 15.125 0.625 15.5161 0.625 16C0.625 16.4839 1.017 16.875 1.5 16.875H5C5 17.8401 5.78487 18.625 6.75 18.625H8.5C9.46513 18.625 10.25 17.8401 10.25 16.875H22.5C22.983 16.875 23.375 16.4839 23.375 16C23.375 15.5161 22.983 15.125 22.5 15.125ZM6.75 16.875V15.125H8.5L8.50088 15.9965C8.50088 15.9983 8.5 15.9991 8.5 16C8.5 16.0009 8.50088 16.0017 8.50088 16.0035V16.875H6.75Z" fill="#001556" />
</svg>
  