<svg width="28" height="28" viewBox="0 0 28 28" fill="none" xmlns="http://www.w3.org/2000/svg">
  <path d="M22.7855 7.51562H18.137V10.2741H22.7855C24.1685 10.2741 25.2411 10.9798 25.2411 11.5876V23.8201C25.2411 24.4274 24.1685 25.1341 22.7855 25.1341H5.21354C3.83108 25.1341 2.75848 24.4274 2.75848 23.8201V11.589C2.75848 10.9812 3.83108 10.275 5.21354 10.275H9.86158V7.51654H5.21354C2.29 7.51654 0 9.30542 0 11.589V23.8206C0 26.1046 2.29 27.8926 5.21354 27.8926H22.7865C25.7091 27.8926 28 26.1037 28 23.8206V11.589C27.9995 9.3045 25.7095 7.51562 22.7855 7.51562Z" fill="#001556" />
  <path d="M18.1733 13.2807C17.8202 13.2807 17.4675 13.4159 17.1981 13.6853L15.4713 15.4117V9.42252V6.66404V1.37924C15.4713 0.617901 14.8539 0 14.0921 0C13.3303 0 12.7128 0.617901 12.7128 1.37924V6.66358V9.42206V15.5045L10.8927 13.6848C10.6233 13.4154 10.2702 13.2803 9.91757 13.2803C9.56495 13.2803 9.21186 13.4154 8.94245 13.6848C8.40362 14.2227 8.40362 15.0963 8.94245 15.6346L13.0604 19.7526C13.3298 20.022 13.6829 20.1558 14.0351 20.1558C14.0387 20.1558 14.0424 20.1558 14.0456 20.1558C14.0489 20.1558 14.0525 20.1558 14.0558 20.1558C14.4088 20.1558 14.761 20.022 15.0304 19.7526L19.1484 15.6346C19.6872 15.0963 19.6872 14.2227 19.1484 13.6848C18.879 13.4159 18.5268 13.2807 18.1733 13.2807Z" fill="#001556" />
</svg>
  