<svg width="19" height="4" viewBox="0 0 19 4" fill="none" xmlns="http://www.w3.org/2000/svg">
  <path d="M8.6821 2C8.6821 2.55228 9.13194 3 9.68684 3C10.2417 3 10.6916 2.55228 10.6916 2C10.6916 1.44772 10.2417 1 9.68684 1C9.13194 1 8.6821 1.44772 8.6821 2Z" stroke="#001556" stroke-width="2" stroke-linecap="round" stroke-linejoin="round" />
  <path d="M15.7153 2C15.7153 2.55228 16.1651 3 16.72 3C17.275 3 17.7248 2.55228 17.7248 2C17.7248 1.44772 17.275 1 16.72 1C16.1651 1 15.7153 1.44772 15.7153 2Z" stroke="#001556" stroke-width="2" stroke-linecap="round" stroke-linejoin="round" />
  <path d="M1.6489 2C1.6489 2.55228 2.09874 3 2.65364 3C3.20855 3 3.65839 2.55228 3.65839 2C3.65839 1.44772 3.20855 1 2.65364 1C2.09874 1 1.6489 1.44772 1.6489 2Z" stroke="#001556" stroke-width="2" stroke-linecap="round" stroke-linejoin="round" />
</svg>
  