<svg width="118" height="48" viewBox="0 0 118 48" fill="none" xmlns="http://www.w3.org/2000/svg">
  <path d="M25.5713 3.793C26.9614 3.793 28.2191 4.0743 29.3443 4.63717C30.4698 5.19978 31.3579 6.07634 32.0092 7.26823C32.6593 8.45985 32.9856 10.0047 32.9856 11.9019V22.2285H25.5052V13.1926C25.5052 12.0676 25.3065 11.2676 24.9094 10.7931C24.512 10.3192 23.9713 10.0818 23.2877 10.0818C22.7797 10.0818 22.3113 10.1973 21.8807 10.4295C21.4506 10.6609 21.1084 11.0415 20.8548 11.5712C20.6009 12.1008 20.4742 12.818 20.4742 13.7222V22.2285H12.994V-4.09334e-05H20.4742V9.41984L18.687 7.89698C19.3929 6.52889 20.3471 5.50331 21.5497 4.81858C22.7523 4.13522 24.0929 3.793 25.5713 3.793Z" fill="#001556" />
  <path d="M52.4095 11.3184C52.4589 10.9984 52.5571 10.7031 52.6801 10.4572C52.9262 9.96509 53.2707 9.57154 53.738 9.30067C54.181 9.03007 54.7224 8.88242 55.3375 8.88242C55.9528 8.88242 56.4693 9.03007 56.9122 9.30067C57.3551 9.57154 57.6996 9.96509 57.9702 10.4572C58.0931 10.7031 58.1916 10.9984 58.241 11.3184H52.4095ZM64.6627 13.1637C64.6627 12.3025 64.7612 11.4904 64.958 10.7278C64.7612 9.71891 64.3676 8.8086 63.8509 7.99653C62.9405 6.61884 61.7347 5.56087 60.2093 4.84705C58.7084 4.15821 57.0598 3.78909 55.2636 3.78909C53.3198 3.78909 51.573 4.18291 50.0227 4.9947C48.4726 5.78207 47.267 6.86474 46.3811 8.2674C46.3567 8.2674 46.3567 8.29183 46.3567 8.29183C45.9629 8.93182 45.6431 9.59624 45.4461 10.3095C45.1511 11.1954 45.0034 12.1301 45.0034 13.1637C45.0034 14.9355 45.4461 16.5593 46.3567 17.9864C47.267 19.3888 48.5464 20.5206 50.195 21.3327C51.8191 22.1445 53.7627 22.563 55.9528 22.563C57.7734 22.563 59.3234 22.3168 60.6029 21.8247C61.907 21.308 62.9897 20.5944 63.8753 19.6597L59.9632 15.6981C59.3728 16.1411 58.8069 16.4855 58.2655 16.7067C57.7243 16.9282 57.0351 17.0267 56.1987 17.0267C55.3869 17.0267 54.6733 16.9038 54.1074 16.6085C53.5415 16.3379 53.0983 15.9196 52.7786 15.3781C52.7048 15.2305 52.6309 15.0828 52.5571 14.9108H64.835C64.7121 14.3449 64.6627 13.7543 64.6627 13.1637" fill="#001556" />
  <path d="M42.0012 4.84703C41.435 5.19145 40.9432 5.58527 40.5247 6.07734V4.13348H33.3893V22.2183H40.8691V14.1972C40.8691 12.7454 41.2385 11.7366 41.9518 11.146C42.6654 10.5801 43.6004 10.2848 44.7077 10.2848C44.9536 10.2848 45.2245 10.2848 45.4457 10.3095C45.6428 9.59594 45.9625 8.93152 46.3563 8.2918C46.3563 8.2918 46.3563 8.2671 46.3807 8.2671V3.78906C44.683 3.78906 43.2068 4.15818 42.0012 4.84703Z" fill="#FFCB04" />
  <path d="M72.0689 11.3184C72.1183 10.9984 72.2165 10.7031 72.3395 10.4572C72.5857 9.96509 72.9304 9.57154 73.373 9.30067C73.8407 9.03007 74.3819 8.88242 74.9969 8.88242C75.6122 8.88242 76.1287 9.03007 76.5716 9.30067C77.0146 9.57154 77.359 9.96509 77.6299 10.4572C77.7525 10.7031 77.8513 10.9984 77.9005 11.3184H72.0689ZM83.5103 7.99653C82.6 6.61884 81.3941 5.56087 79.8687 4.84705C78.3678 4.15821 76.7193 3.78909 74.9231 3.78909C72.9792 3.78909 71.2324 4.18291 69.6824 4.9947C68.132 5.78207 66.902 6.88944 65.9914 8.29183C65.524 9.05449 65.1793 9.86656 64.9579 10.7278C64.7614 11.4904 64.6628 12.3025 64.6628 13.1637C64.6628 13.7543 64.712 14.3449 64.8352 14.9108C65.0073 16.0181 65.4255 17.0514 66.0161 17.9864C66.9267 19.3888 68.2059 20.5206 69.8547 21.3327C71.4786 22.1445 73.4221 22.563 75.6122 22.563C77.4328 22.563 78.9829 22.3168 80.2623 21.8247C81.5664 21.308 82.6491 20.5944 83.535 19.6597L79.6226 15.6981C79.0323 16.1411 78.4664 16.4855 77.9249 16.7067C77.3837 16.9282 76.6946 17.0267 75.8581 17.0267C75.0216 17.0267 74.3327 16.9038 73.7668 16.6085C73.2009 16.3379 72.758 15.9196 72.438 15.3781C72.3642 15.2305 72.2904 15.0828 72.2165 14.9108H84.7897C84.8144 14.6402 84.8391 14.3696 84.8636 14.0496C84.8636 13.7299 84.8883 13.4343 84.8883 13.1637C84.8883 11.0969 84.4206 9.39919 83.5103 7.99653" fill="#FFCB04" />
  <path d="M7.91046 22.5601C5.41662 22.5601 3.47524 21.959 2.0852 20.7564C0.695157 19.5536 0 17.706 0 15.2125V0.00025255H7.48041V15.1461C7.48041 15.698 7.62916 16.1283 7.92693 16.437C8.22497 16.7463 8.59409 16.9006 9.03567 16.9006C9.67566 16.9006 10.2383 16.7345 10.7237 16.4038L12.5112 21.6003C11.937 21.931 11.2479 22.1742 10.4427 22.3284C9.63669 22.4829 8.79251 22.5601 7.91046 22.5601ZM0 4.12454H11.187V9.58617H0V4.12454Z" fill="#001556" />
  <path d="M48.1144 41.5791C46.5698 41.5791 45.0469 41.4136 43.5469 41.0824C42.0459 40.7517 40.8326 40.3213 39.9061 39.7922L41.9581 34.8605C42.8188 35.368 43.8166 35.7654 44.9534 36.0519C46.0895 36.3389 47.1983 36.4819 48.2798 36.4819C49.1844 36.4819 49.7964 36.4051 50.1167 36.2503C50.4364 36.0961 50.5964 35.8867 50.5964 35.6216C50.5964 35.357 50.4087 35.1638 50.0341 35.0425C49.6584 34.9212 49.1622 34.8271 48.5444 34.7609C47.9266 34.695 47.2482 34.6119 46.5089 34.5128C45.7693 34.4137 45.0247 34.2644 44.2749 34.066C43.5243 33.8671 42.8402 33.5693 42.223 33.1719C41.6046 32.7753 41.1085 32.2405 40.7333 31.567C40.3579 30.8943 40.1707 30.0392 40.1707 29.0021C40.1707 27.8549 40.5184 26.8178 41.2133 25.8905C41.9084 24.9639 42.9453 24.2191 44.3243 23.6562C45.7031 23.0936 47.4079 22.8123 49.4383 22.8123C50.7622 22.8123 52.0861 22.9342 53.41 23.1765C54.7339 23.4197 55.87 23.7943 56.8193 24.302L54.7671 29.2334C53.84 28.7262 52.9302 28.3788 52.0364 28.1908C51.1428 28.0034 50.3096 27.9092 49.5376 27.9092C48.5886 27.9092 47.9431 27.9984 47.6012 28.1746C47.2589 28.3516 47.0882 28.5498 47.0882 28.7704C47.0882 29.035 47.2754 29.2334 47.6508 29.3657C48.0257 29.4985 48.5225 29.5979 49.1402 29.664C49.758 29.7299 50.4364 29.813 51.1757 29.9121C51.9148 30.0114 52.6541 30.1662 53.3935 30.3759C54.1326 30.585 54.811 30.8886 55.4287 31.2854C56.0465 31.6828 56.543 32.2185 56.9184 32.8906C57.2933 33.5644 57.4813 34.4192 57.4813 35.4561C57.4813 36.5376 57.1385 37.547 56.4551 38.4845C55.771 39.4228 54.7339 40.1729 53.3438 40.7349C51.9538 41.2978 50.2105 41.5791 48.1144 41.5791Z" fill="#FFCB04" />
  <path d="M58.2426 23.1432H65.7227V41.248H58.2426V23.1432Z" fill="#FFCB04" />
  <path d="M65.4021 41.248L73.9413 30.0608L73.7432 34.3634L65.6008 23.1432H74.0409L78.0456 29.1337L74.9342 29.3653L79.3365 23.1432H87.1808L79.0055 33.9995V29.8621L87.3463 41.248H78.7739L74.6365 34.8602L77.7807 35.2905L73.5113 41.248H65.4021Z" fill="#FFCB04" />
  <path d="M93.7576 41.5791C91.2638 41.5791 89.3224 40.9781 87.9321 39.7755C86.5421 38.5726 85.8472 36.7251 85.8472 34.2315V19.0725H93.3273V34.1651C93.3273 34.717 93.4763 35.1473 93.7741 35.4561C94.0721 35.7654 94.4413 35.9196 94.8828 35.9196C95.5228 35.9196 96.0854 35.7536 96.5709 35.4229L98.3583 40.6194C97.7842 40.9501 97.0948 41.1932 96.2896 41.3475C95.4839 41.502 94.6397 41.5791 93.7576 41.5791ZM85.8472 23.1436H97.0342V28.6049H85.8472V23.1436Z" fill="#FFCB04" />
  <path d="M100.903 48C99.9103 48 98.9009 47.8507 97.8748 47.5532C96.8489 47.2549 96.0264 46.8633 95.4089 46.3783L97.8912 41.2479C98.2664 41.5345 98.6907 41.7661 99.1657 41.9431C99.64 42.1193 100.098 42.2077 100.539 42.2077C101.201 42.2077 101.709 42.0696 102.062 41.7941C102.415 41.518 102.701 41.1047 102.923 40.5531L103.684 38.6334L104.213 37.9053L110.005 23.1434H117.088L109.641 41.6119C108.979 43.267 108.212 44.5577 107.341 45.4842C106.469 46.4115 105.498 47.0617 104.428 47.4371C103.358 47.8123 102.183 48 100.903 48ZM102.658 42.0754L94.7799 23.1434H102.459L107.887 37.2433L102.658 42.0754Z" fill="#FFCB04" />
</svg>
  